<svg width="70" height="67" viewBox="0 0 70 67" fill="none" xmlns="http://www.w3.org/2000/svg">
<path d="M3.8335 3.83337H15.1668L22.7602 41.7717C23.0193 43.0762 23.7289 44.2479 24.7649 45.0819C25.8008 45.9158 27.0971 46.3589 28.4268 46.3334H55.9668C57.2965 46.3589 58.5928 45.9158 59.6288 45.0819C60.6648 44.2479 61.3744 43.0762 61.6335 41.7717L66.1668 18H18.0002M29.3335 60.5C29.3335 62.0649 28.065 63.3334 26.5002 63.3334C24.9354 63.3334 23.6668 62.0649 23.6668 60.5C23.6668 58.9352 24.9354 57.6667 26.5002 57.6667C28.065 57.6667 29.3335 58.9352 29.3335 60.5ZM60.5002 60.5C60.5002 62.0649 59.2316 63.3334 57.6668 63.3334C56.102 63.3334 54.8335 62.0649 54.8335 60.5C54.8335 58.9352 56.102 57.6667 57.6668 57.6667C59.2316 57.6667 60.5002 58.9352 60.5002 60.5Z" stroke="url(#paint0_linear_1248_834)" stroke-width="6" stroke-linecap="round" stroke-linejoin="round"/>
<defs>
<linearGradient id="paint0_linear_1248_834" x1="-5.20484" y1="-3.00913" x2="59.3565" y2="66.3369" gradientUnits="userSpaceOnUse">
<stop offset="0.0363151" stop-color="#3F156A"/>
<stop offset="0.524591" stop-color="#DA3762"/>
<stop offset="1" stop-color="#FCBA7D"/>
</linearGradient>
</defs>
</svg>
