<svg width="54" height="54" viewBox="0 0 54 54" fill="none" xmlns="http://www.w3.org/2000/svg">
<rect x="1" y="1" width="52" height="52" rx="5" fill="url(#paint0_linear_1206_2435)" fill-opacity="0.7" stroke="url(#paint1_linear_1206_2435)" stroke-width="2"/>
<path d="M24.4422 28.2238C24.4422 26.8096 24.4422 26.1025 24.8815 25.6631C25.3209 25.2238 26.028 25.2238 27.4422 25.2238H27.758C29.1722 25.2238 29.8793 25.2238 30.3187 25.6631C30.758 26.1025 30.758 26.8096 30.758 28.2238V35.3998C30.758 36.814 30.758 37.5211 30.3187 37.9605C29.8793 38.3998 29.1722 38.3998 27.758 38.3998H27.4422C26.028 38.3998 25.3209 38.3998 24.8815 37.9605C24.4422 37.5211 24.4422 36.814 24.4422 35.3998V28.2238ZM33.2843 35.3998C33.2843 36.814 33.2843 37.5211 33.7236 37.9605C34.163 38.3998 34.8701 38.3998 36.2843 38.3998H37.0738C38.4633 38.3998 39.6001 37.3198 39.6001 35.9998V28.1998C39.6001 26.7856 39.6001 26.0785 39.1608 25.6391C38.7214 25.1998 38.0143 25.1998 36.6001 25.1998H36.2843C34.8701 25.1998 34.163 25.1998 33.7236 25.6391C33.2843 26.0785 33.2843 26.7856 33.2843 28.1998V35.3998ZM37.0738 16.7998H18.1264C16.7369 16.7998 15.6001 17.8798 15.6001 19.1998V19.7998C15.6001 21.214 15.6001 21.9211 16.0394 22.3605C16.4788 22.7998 17.1859 22.7998 18.6001 22.7998H36.6001C38.0143 22.7998 38.7214 22.7998 39.1608 22.3605C39.6001 21.9211 39.6001 21.214 39.6001 19.7998V19.1998C39.6001 17.8798 38.4633 16.7998 37.0738 16.7998ZM15.6001 35.9998C15.6001 37.3198 16.7369 38.3998 18.1264 38.3998H18.9159C20.3301 38.3998 21.0372 38.3998 21.4765 37.9605C21.9159 37.5211 21.9159 36.814 21.9159 35.3998V28.1998C21.9159 26.7856 21.9159 26.0785 21.4765 25.6391C21.0372 25.1998 20.3301 25.1998 18.9159 25.1998H18.6001C17.1859 25.1998 16.4788 25.1998 16.0394 25.6391C15.6001 26.0785 15.6001 26.7856 15.6001 28.1998V35.9998Z" fill="url(#paint2_linear_1206_2435)"/>
<defs>
<linearGradient id="paint0_linear_1206_2435" x1="25.4866" y1="0" x2="25.4866" y2="54" gradientUnits="userSpaceOnUse">
<stop stop-color="#272727" stop-opacity="0.6"/>
<stop offset="1" stop-color="#111111" stop-opacity="0.2"/>
</linearGradient>
<linearGradient id="paint1_linear_1206_2435" x1="-7.83" y1="-6.21" x2="50.895" y2="54" gradientUnits="userSpaceOnUse">
<stop offset="0.0363151" stop-color="#3F156A"/>
<stop offset="0.524591" stop-color="#DA3762"/>
<stop offset="1" stop-color="#FCBA7D"/>
</linearGradient>
<linearGradient id="paint2_linear_1206_2435" x1="12.1201" y1="14.3158" x2="35.4193" y2="40.8584" gradientUnits="userSpaceOnUse">
<stop offset="0.0363151" stop-color="#3F156A"/>
<stop offset="0.524591" stop-color="#DA3762"/>
<stop offset="1" stop-color="#FCBA7D"/>
</linearGradient>
</defs>
</svg>
