<svg width="54" height="54" viewBox="0 0 54 54" fill="none" xmlns="http://www.w3.org/2000/svg">
<rect x="1" y="1" width="52" height="52" rx="5" fill="url(#paint0_linear_1206_2450)" fill-opacity="0.7" stroke="url(#paint1_linear_1206_2450)" stroke-width="2"/>
<path d="M30.8966 18.2382C31.2132 17.5262 30.8941 16.6829 30.1476 16.4599C28.3139 15.9123 26.3606 15.8503 24.4819 16.2921C22.1433 16.842 20.0491 18.1424 18.5192 19.9946C16.9892 21.8468 16.1077 24.1489 16.0092 26.5492C15.9108 28.9496 16.6009 31.3162 17.974 33.2874C19.3471 35.2586 21.3279 36.7262 23.6135 37.4657C25.8992 38.2053 28.3642 38.1763 30.6318 37.3832C32.8994 36.59 34.8451 35.0763 36.1715 33.0733C37.237 31.4642 37.8558 29.6104 37.9777 27.7006C38.0273 26.923 37.3468 26.3315 36.5693 26.3817L31.7033 26.6961C30.9258 26.7463 30.364 27.4432 30.0875 28.1716C30.0012 28.3992 29.8894 28.6179 29.7534 28.8233C29.3552 29.4246 28.7711 29.8791 28.0903 30.1172C27.4095 30.3553 26.6695 30.364 25.9833 30.142C25.2971 29.9199 24.7025 29.4794 24.2903 28.8876C23.878 28.2958 23.6709 27.5853 23.7004 26.8647C23.73 26.1441 23.9946 25.4529 24.4539 24.8969C24.9132 24.3408 25.542 23.9504 26.244 23.7853C26.4838 23.7289 26.7277 23.6999 26.9711 23.6978C27.7502 23.6909 28.5986 23.4054 28.9152 22.6935L30.8966 18.2382Z" fill="url(#paint2_linear_1206_2450)"/>
<defs>
<linearGradient id="paint0_linear_1206_2450" x1="25.4866" y1="0" x2="25.4866" y2="54" gradientUnits="userSpaceOnUse">
<stop stop-color="#272727" stop-opacity="0.6"/>
<stop offset="1" stop-color="#111111" stop-opacity="0.2"/>
</linearGradient>
<linearGradient id="paint1_linear_1206_2450" x1="-7.83" y1="-6.21" x2="50.895" y2="54" gradientUnits="userSpaceOnUse">
<stop offset="0.0363151" stop-color="#3F156A"/>
<stop offset="0.524591" stop-color="#DA3762"/>
<stop offset="1" stop-color="#FCBA7D"/>
</linearGradient>
<linearGradient id="paint2_linear_1206_2450" x1="12.81" y1="13.47" x2="36.735" y2="38" gradientUnits="userSpaceOnUse">
<stop offset="0.0363151" stop-color="#3F156A"/>
<stop offset="0.524591" stop-color="#DA3762"/>
<stop offset="1" stop-color="#FCBA7D"/>
</linearGradient>
</defs>
</svg>
