<svg width="55" height="47" viewBox="0 0 55 47" fill="none" xmlns="http://www.w3.org/2000/svg">
<path fill-rule="evenodd" clip-rule="evenodd" d="M46.0145 1.10105C47.7688 1.82798 49.3627 2.89341 50.7053 4.23652C52.0483 5.57901 53.1138 7.17293 53.8409 8.92727C54.5676 10.6816 54.9416 12.562 54.9416 14.461C54.9416 16.36 54.5676 18.2404 53.8409 19.9947C53.1138 21.7491 52.0483 23.3432 50.7053 24.6853L30.6493 44.7413C28.8936 46.497 26.0466 46.497 24.2909 44.7413L4.2351 24.6853C1.52344 21.9738 0 18.2959 0 14.461C0 10.6261 1.52344 6.94822 4.2351 4.23652C6.9468 1.52482 10.6247 0.0014233 14.4596 0.0014233C18.2945 0.0014233 21.9724 1.52482 24.684 4.23652L27.4701 7.02262L30.2562 4.23652C31.5988 2.89341 33.1926 1.82798 34.947 1.10105C36.7014 0.374133 38.5816 0 40.481 0C42.3799 0 44.2601 0.374133 46.0145 1.10105ZM19.9189 15.7223C17.8684 18.7976 16.347 21.8916 16.347 25.247C16.347 30.1904 19.1774 34.8385 23.2356 36.6413L24.6231 34.6668C26.2983 32.7524 29.015 32.7515 30.6911 34.6668L31.8247 35.9614C35.8827 34.1581 38.373 29.9311 38.373 25.2461C38.373 19.428 33.5951 15.6323 33.5951 15.6323C33.1152 15.1776 32.7159 15.3595 32.7141 16.0139C32.7141 16.0139 33.0152 21.6753 30.0387 21.6753C28.5227 21.6753 28.4956 20.2311 28.4565 18.1317C28.4067 15.4656 28.3373 11.7427 25.1732 8.57892C23.9267 7.51033 23.4259 7.0811 23.1956 7.19566C22.6566 7.46395 23.6016 10.716 19.9189 15.7223ZM33.0583 10.9333C31.9857 9.27858 29.9053 8.32646 28.9875 8.48549C28.5903 8.55402 28.7086 8.68472 29.0146 9.02341C29.4166 9.46839 30.1433 10.2724 30.4528 11.7663C30.9989 14.396 34.5561 13.3238 33.0583 10.9333Z" fill="#FF6665"/>
</svg>
