<svg width="35" height="41" viewBox="0 0 35 41" fill="none" xmlns="http://www.w3.org/2000/svg">
<path fill-rule="evenodd" clip-rule="evenodd" d="M14.8629 17.4368H0V23.7989C0 33.2986 7.83496 41 17.4999 41C27.1649 41 35 33.2986 35 23.7989V17.4368H19.6574V7.3046C19.6574 3.27039 16.3302 0 12.2259 0C8.12167 0 4.79449 3.27039 4.79449 7.3046H9.58898C9.58898 5.87309 10.7696 4.71264 12.2259 4.71264C13.6823 4.71264 14.8629 5.87309 14.8629 7.3046V17.4368ZM14.8629 22.1494V31.1034H19.6574V22.1494H30.2055V23.7989C30.2055 30.6963 24.5169 36.2874 17.4999 36.2874C10.4829 36.2874 4.79449 30.6963 4.79449 23.7989V22.1494H14.8629Z" fill="#EE1B23"/>
</svg>
