<svg width="25" height="23" viewBox="0 0 25 23" fill="none" xmlns="http://www.w3.org/2000/svg">
<path fill-rule="evenodd" clip-rule="evenodd" d="M12.5 22.9732C12.3718 22.9977 12.2388 23.0057 12.104 22.9959C7.94061 22.6907 3.99984 20.4688 1.75455 16.7113C-0.490766 12.9538 -0.511971 8.54548 1.29628 4.90916C1.5588 4.38123 2.12788 4.06379 2.73236 4.1081C4.28388 4.22184 5.80448 4.60175 7.21796 5.22812C8.2845 3.21884 9.86246 1.50478 11.7858 0.246322C12.2877 -0.0821074 12.9443 -0.0821074 13.4462 0.246322C15.3435 1.4877 16.9046 3.17239 17.9703 5.14643C19.3302 4.56866 20.7848 4.2168 22.2677 4.1081C22.8722 4.06379 23.4412 4.38123 23.7037 4.90916C25.5119 8.54548 25.4908 12.9538 23.2456 16.7113C21.0001 20.4688 17.0594 22.6907 12.896 22.9959C12.7611 23.0057 12.6282 22.9977 12.5 22.9732ZM15.5504 20.6955C18.0461 19.8755 20.2535 18.2112 21.6736 15.8346C23.5641 12.6709 23.6257 8.97171 22.1684 5.87634C20.9718 5.98852 19.8005 6.28422 18.7018 6.75109C19.2377 8.17563 19.5301 9.71323 19.5301 11.3167C19.5301 14.9713 18.0114 18.2834 15.5504 20.6955ZM16.3635 5.96181C15.4731 4.31034 14.1832 2.89117 12.616 1.82342C11.0152 2.91404 9.70375 4.37128 8.81183 6.06825C10.2314 6.94532 11.4925 8.09906 12.5 9.50497C13.5488 8.04148 14.8725 6.85118 16.3635 5.96181ZM13.5282 11.2057C14.4403 9.70274 15.6685 8.48821 17.085 7.59609C17.4938 8.7642 17.7152 10.0155 17.7152 11.3167C17.7152 14.3208 16.5349 17.0589 14.5944 19.1213C15.1195 16.516 14.8019 13.7412 13.5282 11.2057ZM11.4717 11.2057C10.6009 9.77027 9.4413 8.59803 8.10496 7.71839C7.72306 8.8514 7.51674 10.0608 7.51674 11.3167C7.51674 14.1667 8.57911 16.7774 10.3451 18.7988C9.90844 16.288 10.2505 13.6369 11.4717 11.2057ZM12.5 19.9784C13.1814 17.8851 13.2093 15.6014 12.5 13.4366C11.7906 15.6014 11.8188 17.8851 12.5 19.9784ZM3.32633 15.8346C4.81107 18.3192 7.15612 20.0251 9.79147 20.802C7.26585 18.3813 5.70182 15.0255 5.70182 11.3167C5.70182 9.74574 5.98245 8.23818 6.49791 6.8381C5.34175 6.32084 4.10099 5.99532 2.83159 5.87634C1.37433 8.97171 1.43589 12.6709 3.32633 15.8346Z" fill="#EF898B"/>
</svg>
