<svg width="27" height="27" viewBox="0 0 27 27" fill="none" xmlns="http://www.w3.org/2000/svg">
<path d="M7.896 19.4133H20.1013V24.1893C20.1013 25.3616 19.151 26.3119 17.9786 26.3119H10.0187C8.84634 26.3119 7.896 25.3616 7.896 24.1893V19.4133Z" fill="white"/>
<path fill-rule="evenodd" clip-rule="evenodd" d="M11.0732 0.674829C8.16697 1.26643 5.60616 2.80818 3.72918 4.96153C3.72912 4.9615 3.72925 4.96159 3.72918 4.96153C1.69749 7.29237 0.466797 10.3397 0.466797 13.6746V14.1375C0.466925 14.1373 0.467022 14.1371 0.467118 14.1369V14.6234C0.467118 14.7279 0.467118 14.7801 0.468177 14.8243C0.515351 16.8066 2.11111 18.4024 4.09338 18.4495C4.13757 18.4506 4.18985 18.4506 4.29434 18.4506H23.1732C23.2777 18.4506 23.33 18.4506 23.3742 18.4495C25.3564 18.4024 26.9521 16.8066 26.9993 14.8243C27.0003 14.7801 27.0003 14.7279 27.0003 14.6234V13.6746C27.0003 6.34764 21.0607 0.407959 13.7338 0.407959C12.8227 0.407959 11.9327 0.499868 11.0732 0.674829ZM11.0074 1.77495C10.6119 4.01388 8.65674 5.71458 6.30437 5.71458C5.7489 5.71458 5.21561 5.61975 4.71977 5.44543C6.36572 3.64352 8.54478 2.33683 11.0074 1.77495ZM17.5881 2.09037C18.1034 4.17167 19.9837 5.71458 22.2243 5.71458C22.4676 5.71458 22.7068 5.69638 22.9403 5.66124C21.523 4.03429 19.6815 2.78652 17.5881 2.09037ZM25.9037 12.7371C25.0629 11.9992 23.9609 11.5519 22.7545 11.5519C20.1168 11.5519 17.9785 13.6902 17.9785 16.3279C17.9785 16.6927 18.0194 17.0479 18.0969 17.3893H23.1732C23.2838 17.3893 23.3205 17.3892 23.3489 17.3885C24.7648 17.3548 25.9047 16.215 25.9384 14.7991C25.939 14.7707 25.939 14.734 25.939 14.6234V13.6746C25.939 13.3592 25.9271 13.0465 25.9037 12.7371ZM9.36965 17.3893C9.44711 17.0479 9.48803 16.6927 9.48803 16.3279C9.48803 13.6902 7.34973 11.5519 4.71204 11.5519C3.50608 11.5519 2.40452 11.9988 1.56399 12.7361C1.54044 13.0459 1.52847 13.3588 1.52847 13.6746V14.6234C1.52847 14.734 1.52853 14.7707 1.52921 14.7991C1.5629 16.215 2.70275 17.3548 4.11864 17.3885C4.14704 17.3892 4.18372 17.3893 4.29434 17.3893H9.36965ZM18.5095 9.42926C18.5095 12.067 16.3713 14.2053 13.7335 14.2053C11.0958 14.2053 8.95757 12.067 8.95757 9.42926C8.95757 6.79153 11.0958 4.65326 13.7335 4.65326C16.3713 4.65326 18.5095 6.79153 18.5095 9.42926Z" fill="#6DD37F"/>
</svg>
