<svg width="31" height="28" viewBox="0 0 31 28" fill="none" xmlns="http://www.w3.org/2000/svg">
<path d="M2.49205 5.87347C3.22856 4.45574 7.09255 1.0174 10.2108 0.349283C11.6086 0.0497701 12.1209 0.822535 12.1857 1.94767C18.4932 2.67658 24.383 7.98897 25.7345 14.4341C26.0999 16.1777 26.0985 17.838 25.7831 19.3475L27.3222 19.323C26.5851 21.3409 24.1327 25.5625 18.359 26.773C18.1393 26.8191 17.9202 26.8557 17.7013 26.883C17.1505 26.964 16.5789 27.0059 15.9892 27.0059C9.15145 27.0059 2.42845 21.3774 0.972882 14.4341C0.27956 11.1269 0.906408 8.11795 2.49205 5.87347Z" fill="#9F163D"/>
<path d="M18.3051 24.9107C25.019 24.9107 29.2927 19.3342 27.8506 12.4553C26.4085 5.57644 19.7968 0 13.0829 0C6.36897 0 2.09531 5.57644 3.5374 12.4553C4.97948 19.3342 11.5912 24.9107 18.3051 24.9107Z" fill="#EB323A"/>
<path d="M18.0025 21.6513C23.2756 21.6513 26.6325 17.2736 25.5004 11.8733C24.3683 6.47305 19.1759 2.09528 13.9028 2.09528C8.62968 2.09528 5.27273 6.47305 6.40484 11.8733C7.53694 17.2736 12.7294 21.6513 18.0025 21.6513Z" fill="white"/>
<path d="M17.6806 18.6248C21.5836 18.6248 24.0845 15.4617 23.2665 11.5598C22.4485 7.65783 18.6213 4.49469 14.7184 4.49469C10.8154 4.49469 8.31448 7.65783 9.13248 11.5598C9.95048 15.4617 13.7776 18.6248 17.6806 18.6248Z" fill="#EB323A"/>
<path d="M17.5581 15.699C20.0591 15.699 21.6705 13.7147 21.1574 11.2669C20.6442 8.81915 18.2008 6.83484 15.6998 6.83484C13.1988 6.83484 11.5874 8.81915 12.1005 11.2669C12.6137 13.7147 15.0571 15.699 17.5581 15.699Z" fill="white"/>
<path d="M17.0871 13.4543C18.3215 13.4543 19.1168 12.475 18.8635 11.2669C18.6103 10.0589 17.4043 9.07953 16.17 9.07953C14.9357 9.07953 14.1404 10.0589 14.3936 11.2669C14.6469 12.475 15.8528 13.4543 17.0871 13.4543Z" fill="#EB323A"/>
</svg>
