<svg width="45" height="60" viewBox="0 0 45 60" fill="none" xmlns="http://www.w3.org/2000/svg">
<path fill-rule="evenodd" clip-rule="evenodd" d="M23.7185 17.2987C16.9632 17.2987 11.4869 22.775 11.4869 29.5301V30.3863H0V29.5301C0 16.431 10.6191 5.81183 23.7185 5.81183V17.2987Z" fill="url(#paint0_linear_552_844)"/>
<path fill-rule="evenodd" clip-rule="evenodd" d="M33.3823 30.3863V29.5307H44.8697V30.3863C44.8697 43.486 34.2501 54.105 21.1509 54.105V42.6182C27.9062 42.6182 33.3823 37.1416 33.3823 30.3863Z" fill="url(#paint1_linear_552_844)"/>
<path fill-rule="evenodd" clip-rule="evenodd" d="M23.2902 0V22.6828L42.9773 11.5554L23.2902 0ZM21.5795 59.917L21.5796 37.2343L1.89258 48.3613L21.5795 59.917Z" fill="#4951FF"/>
<defs>
<linearGradient id="paint0_linear_552_844" x1="22.7049" y1="12.1635" x2="3.24317" y2="12.704" gradientUnits="userSpaceOnUse">
<stop stop-color="#3A41CE"/>
<stop offset="1" stop-color="#4951FF"/>
</linearGradient>
<linearGradient id="paint1_linear_552_844" x1="22.1645" y1="47.7534" x2="41.6261" y2="47.2126" gradientUnits="userSpaceOnUse">
<stop stop-color="#3A41CE"/>
<stop offset="1" stop-color="#4951FF"/>
</linearGradient>
</defs>
</svg>
