<svg width="26" height="26" viewBox="0 0 26 26" fill="none" xmlns="http://www.w3.org/2000/svg">
<path d="M3.22541 2.82195C5.00835 1.11968 7.42934 0.126108 9.88308 0.00252017C10.7229 0.00252017 11.5651 0.00755878 12.4049 0C12.3621 0.900307 12.4049 1.80313 12.3797 2.7034C12.2612 4.71583 11.5172 6.68286 10.2639 8.26154C8.63477 10.385 6.14319 11.8098 3.49779 12.178C2.34279 12.3646 1.17011 12.246 0.007549 12.2788C0.0277058 11.2877 -0.0353273 10.2942 0.0428655 9.30559C0.269843 6.85436 1.42736 4.50653 3.22541 2.82195Z" fill="#FFC100"/>
<path d="M13.1826 0C14.0829 0.0100784 14.9832 -0.00503968 15.8861 0.0050387C18.133 0.163901 20.3497 1.02637 22.0417 2.52186C23.9079 4.12321 25.1865 6.41305 25.5145 8.85924C25.658 9.99404 25.5674 11.1415 25.623 12.2814C24.8359 12.2788 24.0518 12.2763 23.2648 12.2814C21.3307 12.2284 19.4292 11.603 17.8102 10.5489C17.0637 10.0142 16.2971 9.47205 15.7373 8.73061C14.5091 7.35875 13.6744 5.63633 13.3592 3.8206C13.1221 2.55965 13.2179 1.27355 13.1826 0Z" fill="#FFC100"/>
<path d="M0.00931722 13.0025C0.808755 13.0479 1.61071 12.9647 2.40759 13.0529C5.81963 13.126 9.13085 15.0426 10.8986 17.9604C11.9124 19.5946 12.4571 21.5314 12.3865 23.4557C12.384 24.086 12.3941 24.7138 12.3764 25.342C11.1105 25.304 9.83189 25.4073 8.57854 25.1626C5.79443 24.6937 3.23478 23.0368 1.6939 20.6714C0.526303 18.9515 -0.0562361 16.8508 0.00427689 14.7754C0.00427689 14.1827 0.00427803 13.5926 0.00931722 13.0025Z" fill="#FFC100"/>
<path d="M21.3618 13.2697C22.7339 12.9645 24.1483 13.015 25.543 13.015L25.6037 13.0755C25.5734 14.3944 25.6767 15.7285 25.4119 17.0323C24.8546 19.9576 22.918 22.5704 20.3128 24.0053C18.6912 24.9081 16.8301 25.3518 14.9765 25.3317C14.3839 25.3343 13.7887 25.3215 13.1961 25.3394C13.1961 24.2475 13.1507 23.1504 13.2743 22.0635C13.5618 19.4331 14.9841 16.9844 17.0293 15.3301C18.2953 14.3314 19.7832 13.6076 21.3618 13.2697Z" fill="#FFC100"/>
</svg>
