<svg width="38" height="41" viewBox="0 0 38 41" fill="none" xmlns="http://www.w3.org/2000/svg">
<path fill-rule="evenodd" clip-rule="evenodd" d="M30.8513 7.44684H14V0H38V25H30.8513V7.44684Z" fill="#4A6DFF"/>
<path fill-rule="evenodd" clip-rule="evenodd" d="M17.7449 21.3952C16.6364 20.6546 15.3331 20.2593 13.9999 20.2593V13C16.7689 13 19.4756 13.8211 21.7779 15.3594C24.0802 16.8978 25.8745 19.0842 26.9342 21.6424C27.9938 24.2007 28.2712 27.0155 27.731 29.7312C27.1908 32.4472 25.8575 34.9415 23.8994 36.8997C21.9414 38.8575 19.4469 40.1908 16.7312 40.731C14.0154 41.2712 11.2005 40.9939 8.64235 39.9342C6.08421 38.8745 3.89775 37.0803 2.35941 34.7779C0.821073 32.4758 0 29.7689 0 26.9998H7.25922C7.25922 28.3331 7.65456 29.6365 8.39525 30.7447C9.13589 31.8534 10.1887 32.7175 11.4204 33.2278C12.6521 33.7377 14.0074 33.8714 15.315 33.6111C16.6225 33.3511 17.8236 32.7092 18.7663 31.7666C19.709 30.8236 20.351 29.6228 20.6111 28.3152C20.8712 27.0077 20.7377 25.6519 20.2275 24.4204C19.7174 23.1887 18.8534 22.1359 17.7449 21.3952Z" fill="#2EB9FF"/>
</svg>
