<svg width="32" height="30" viewBox="0 0 32 30" fill="none" xmlns="http://www.w3.org/2000/svg">
<path d="M21.9587 4.54382C21.9587 7.05333 19.9244 9.08765 17.4149 9.08765C14.9055 9.08765 12.8711 7.05333 12.8711 4.54382C12.8711 2.03436 14.9055 0 17.4149 0C19.9244 0 21.9587 2.03436 21.9587 4.54382Z" fill="#34BC85"/>
<path d="M14.9658 24.5438C6.70039 24.5438 0 17.8436 0 9.57824V2.39465C8.26539 2.39465 14.9661 9.09505 14.9661 17.3604L14.9658 24.5438Z" fill="#34BC85"/>
<path d="M31.4285 7.18359C23.1633 7.18359 16.4629 13.884 16.4629 22.1494V29.333C24.7284 29.333 31.4285 22.6324 31.4285 14.3672V7.18359Z" fill="#34BC85"/>
</svg>
