<svg width="93" height="38" viewBox="0 0 93 38" fill="none" xmlns="http://www.w3.org/2000/svg">
<path d="M48.7333 25.6848C47.6986 25.6848 46.7546 25.4448 45.9013 24.9648C45.048 24.4741 44.3706 23.7968 43.8693 22.9328C43.3786 22.0581 43.1333 21.0768 43.1333 19.9888C43.1333 18.9008 43.3786 17.9248 43.8693 17.0608C44.3706 16.1861 45.048 15.5088 45.9013 15.0288C46.7546 14.5381 47.6986 14.2928 48.7333 14.2928C49.7786 14.2928 50.728 14.5381 51.5813 15.0288C52.4346 15.5088 53.1066 16.1808 53.5973 17.0448C54.088 17.9088 54.3333 18.8901 54.3333 19.9888C54.3333 21.0874 54.088 22.0688 53.5973 22.9328C53.1066 23.7968 52.4346 24.4741 51.5813 24.9648C50.728 25.4448 49.7786 25.6848 48.7333 25.6848ZM48.7333 24.4208C49.512 24.4208 50.2106 24.2394 50.8293 23.8768C51.4586 23.5141 51.9493 22.9968 52.3013 22.3248C52.664 21.6528 52.8453 20.8741 52.8453 19.9888C52.8453 19.0928 52.664 18.3141 52.3013 17.6528C51.9493 16.9808 51.464 16.4634 50.8453 16.1008C50.2266 15.7381 49.5226 15.5568 48.7333 15.5568C47.944 15.5568 47.24 15.7381 46.6213 16.1008C46.0026 16.4634 45.512 16.9808 45.1493 17.6528C44.7973 18.3141 44.6213 19.0928 44.6213 19.9888C44.6213 20.8741 44.7973 21.6528 45.1493 22.3248C45.512 22.9968 46.0026 23.5141 46.6213 23.8768C47.2506 24.2394 47.9546 24.4208 48.7333 24.4208ZM66.7994 16.6448C67.4821 16.6448 68.0901 16.7888 68.6234 17.0768C69.1568 17.3541 69.5781 17.7754 69.8874 18.3408C70.1968 18.9061 70.3514 19.5941 70.3514 20.4048V25.5728H68.9114V20.6128C68.9114 19.7381 68.6928 19.0714 68.2554 18.6128C67.8288 18.1434 67.2474 17.9088 66.5114 17.9088C65.7541 17.9088 65.1514 18.1541 64.7034 18.6448C64.2554 19.1248 64.0314 19.8234 64.0314 20.7408V25.5728H62.5914V20.6128C62.5914 19.7381 62.3728 19.0714 61.9354 18.6128C61.5088 18.1434 60.9274 17.9088 60.1914 17.9088C59.4341 17.9088 58.8314 18.1541 58.3834 18.6448C57.9354 19.1248 57.7114 19.8234 57.7114 20.7408V25.5728H56.2554V16.8048H57.7114V18.0688C57.9994 17.6101 58.3834 17.2581 58.8634 17.0128C59.3541 16.7674 59.8928 16.6448 60.4794 16.6448C61.2154 16.6448 61.8661 16.8101 62.4314 17.1408C62.9968 17.4714 63.4181 17.9568 63.6954 18.5968C63.9408 17.9781 64.3461 17.4981 64.9114 17.1568C65.4768 16.8154 66.1061 16.6448 66.7994 16.6448ZM72.1958 21.1568C72.1958 20.2608 72.3771 19.4768 72.7398 18.8048C73.1025 18.1221 73.5985 17.5941 74.2278 17.2208C74.8678 16.8474 75.5771 16.6608 76.3558 16.6608C77.1238 16.6608 77.7905 16.8261 78.3558 17.1568C78.9211 17.4874 79.3425 17.9034 79.6198 18.4048V16.8048H81.0918V25.5728H79.6198V23.9408C79.3318 24.4528 78.8998 24.8794 78.3238 25.2208C77.7585 25.5514 77.0971 25.7168 76.3398 25.7168C75.5611 25.7168 74.8571 25.5248 74.2278 25.1408C73.5985 24.7568 73.1025 24.2181 72.7398 23.5248C72.3771 22.8314 72.1958 22.0421 72.1958 21.1568ZM79.6198 21.1728C79.6198 20.5114 79.4865 19.9354 79.2198 19.4448C78.9531 18.9541 78.5905 18.5808 78.1318 18.3248C77.6838 18.0581 77.1878 17.9248 76.6438 17.9248C76.0998 17.9248 75.6038 18.0528 75.1558 18.3088C74.7078 18.5648 74.3505 18.9381 74.0838 19.4288C73.8171 19.9194 73.6838 20.4954 73.6838 21.1568C73.6838 21.8288 73.8171 22.4154 74.0838 22.9168C74.3505 23.4074 74.7078 23.7861 75.1558 24.0528C75.6038 24.3088 76.0998 24.4368 76.6438 24.4368C77.1878 24.4368 77.6838 24.3088 78.1318 24.0528C78.5905 23.7861 78.9531 23.4074 79.2198 22.9168C79.4865 22.4154 79.6198 21.8341 79.6198 21.1728ZM87.8243 16.6448C88.891 16.6448 89.755 16.9701 90.4163 17.6208C91.0776 18.2608 91.4083 19.1888 91.4083 20.4048V25.5728H89.9683V20.6128C89.9683 19.7381 89.7496 19.0714 89.3123 18.6128C88.875 18.1434 88.2776 17.9088 87.5203 17.9088C86.7523 17.9088 86.139 18.1488 85.6803 18.6288C85.2323 19.1088 85.0083 19.8074 85.0083 20.7248V25.5728H83.5523V16.8048H85.0083V18.0528C85.2963 17.6048 85.6856 17.2581 86.1763 17.0128C86.6776 16.7674 87.227 16.6448 87.8243 16.6448Z" fill="url(#paint0_linear_1228_3842)"/>
<path d="M18.5472 9.78255C18.6978 9.77514 18.8488 9.77143 19 9.77143C19.1512 9.77143 19.3022 9.77514 19.4528 9.78255L19.9323 0.0228853C19.6221 0.00764656 19.3112 0 19 0C18.6888 0 18.3779 0.00764656 18.0677 0.0228853L18.5472 9.78255Z" fill="url(#paint1_linear_1228_3842)"/>
<path d="M16.7576 10.048C17.0507 9.9746 17.3471 9.91564 17.6459 9.87131L16.2121 0.205646C15.597 0.296897 14.9866 0.418297 14.3834 0.569404L16.7576 10.048Z" fill="url(#paint2_linear_1228_3842)"/>
<path d="M20.3541 9.87131C20.6529 9.91564 20.9494 9.9746 21.2424 10.048L23.6166 0.569406C23.0134 0.418298 22.4031 0.296898 21.7879 0.205647L20.3541 9.87131Z" fill="url(#paint3_linear_1228_3842)"/>
<path d="M15.4684 10.4739C15.608 10.4161 15.749 10.3617 15.891 10.3109L12.5991 1.11066C12.3067 1.21529 12.0166 1.32719 11.729 1.44629C11.4415 1.56539 11.1572 1.69141 10.8765 1.8242L15.0543 10.6575C15.1906 10.593 15.3287 10.5318 15.4684 10.4739Z" fill="url(#paint4_linear_1228_3842)"/>
<path d="M22.109 10.3109C22.251 10.3617 22.392 10.4161 22.5316 10.4739C22.6713 10.5318 22.8094 10.593 22.9457 10.6575L27.1235 1.8242C26.8428 1.69141 26.5585 1.56539 26.271 1.44629C25.9835 1.32719 25.6933 1.21529 25.4009 1.11066L22.109 10.3109Z" fill="url(#paint5_linear_1228_3842)"/>
<path d="M13.5025 11.5875C13.7452 11.4076 13.9965 11.2397 14.2556 11.0844L9.23205 2.70316C8.69863 3.02288 8.18123 3.36859 7.68172 3.73905L13.5025 11.5875Z" fill="url(#paint6_linear_1228_3842)"/>
<path d="M23.7444 11.0844C24.0035 11.2397 24.2548 11.4076 24.4975 11.5875L30.3183 3.73906C29.8188 3.36859 29.3014 3.02288 28.768 2.70316L23.7444 11.0844Z" fill="url(#paint7_linear_1228_3842)"/>
<path d="M12.4744 12.4744C12.5813 12.3675 12.6907 12.2634 12.8025 12.1621L6.24038 4.92193C6.01026 5.1305 5.78504 5.3449 5.56497 5.56497C5.3449 5.78504 5.1305 6.01025 4.92193 6.24037L12.1621 12.8025C12.2634 12.6907 12.3675 12.5813 12.4744 12.4744Z" fill="url(#paint8_linear_1228_3842)"/>
<path d="M25.1975 12.1621C25.3093 12.2634 25.4187 12.3675 25.5256 12.4744C25.6325 12.5813 25.7366 12.6907 25.8379 12.8025L33.0781 6.24038C32.8695 6.01026 32.6551 5.78504 32.435 5.56497C32.215 5.3449 31.9897 5.1305 31.7596 4.92193L25.1975 12.1621Z" fill="url(#paint9_linear_1228_3842)"/>
<path d="M11.0844 14.2556C11.2397 13.9965 11.4076 13.7452 11.5875 13.5025L3.73906 7.68172C3.36859 8.18122 3.02288 8.69863 2.70316 9.23204L11.0844 14.2556Z" fill="url(#paint10_linear_1228_3842)"/>
<path d="M26.4125 13.5025C26.5924 13.7452 26.7603 13.9965 26.9156 14.2556L35.2968 9.23205C34.9771 8.69863 34.6314 8.18123 34.2609 7.68172L26.4125 13.5025Z" fill="url(#paint11_linear_1228_3842)"/>
<path d="M10.4739 15.4684C10.5318 15.3287 10.593 15.1906 10.6575 15.0543L1.8242 10.8765C1.69141 11.1572 1.56539 11.4415 1.44629 11.729C1.32719 12.0166 1.21529 12.3067 1.11066 12.5991L10.3109 15.891C10.3617 15.749 10.4161 15.608 10.4739 15.4684Z" fill="url(#paint12_linear_1228_3842)"/>
<path d="M27.3425 15.0543C27.407 15.1906 27.4682 15.3287 27.5261 15.4684C27.5839 15.6081 27.6383 15.749 27.6891 15.891L36.8893 12.5991C36.7847 12.3067 36.6728 12.0166 36.5537 11.729C36.4346 11.4415 36.3086 11.1572 36.1758 10.8765L27.3425 15.0543Z" fill="url(#paint13_linear_1228_3842)"/>
<path d="M9.87131 17.6459C9.91564 17.3471 9.9746 17.0506 10.048 16.7576L0.569405 14.3834C0.418298 14.9866 0.296898 15.597 0.205647 16.2121L9.87131 17.6459Z" fill="url(#paint14_linear_1228_3842)"/>
<path d="M27.952 16.7576C28.0254 17.0507 28.0844 17.3471 28.1287 17.6459L37.7944 16.2121C37.7031 15.597 37.5817 14.9866 37.4306 14.3834L27.952 16.7576Z" fill="url(#paint15_linear_1228_3842)"/>
<path d="M9.77143 19C9.77143 18.8488 9.77514 18.6978 9.78255 18.5472L0.0228853 18.0677C0.00764656 18.3779 0 18.6888 0 19C-3.73604e-07 21.4951 0.491449 23.9658 1.44629 26.271C2.40113 28.5762 3.80066 30.6707 5.56497 32.435C7.32928 34.1993 9.42383 35.5989 11.729 36.5537C14.0342 37.5086 16.5049 38 19 38C21.4951 38 23.9658 37.5086 26.271 36.5537C28.5762 35.5989 30.6707 34.1993 32.435 32.435C34.1993 30.6707 35.5989 28.5762 36.5537 26.271C37.5086 23.9658 38 21.4951 38 19C38 18.6888 37.9924 18.3779 37.9771 18.0677L28.2175 18.5472C28.2249 18.6978 28.2286 18.8488 28.2286 19C28.2286 20.2119 27.9899 21.412 27.5261 22.5316C27.0623 23.6513 26.3825 24.6686 25.5256 25.5256C24.6686 26.3825 23.6513 27.0623 22.5316 27.5261C21.412 27.9899 20.2119 28.2286 19 28.2286C17.7881 28.2286 16.588 27.9899 15.4684 27.5261C14.3487 27.0623 13.3314 26.3825 12.4744 25.5256C11.6175 24.6686 10.9377 23.6513 10.4739 22.5316C10.0101 21.412 9.77143 20.2119 9.77143 19Z" fill="url(#paint16_linear_1228_3842)"/>
<g opacity="0.3">
<path d="M19.0013 9.77105C18.8501 9.77105 18.6991 9.77477 18.5484 9.78217L18.3664 6.07587C18.7873 5.8943 19.2189 5.7327 19.6599 5.59226L19.4541 9.78217C19.3034 9.77477 19.1524 9.77105 19.0013 9.77105Z" fill="black"/>
<path d="M21.044 5.22848L20.3554 9.87093C20.6542 9.91526 20.9506 9.97422 21.2436 10.0476L22.5073 5.00289C22.0115 5.0528 21.5233 5.12845 21.044 5.22848Z" fill="black"/>
<path d="M24.0348 4.93188L22.1103 10.3105C22.2523 10.3613 22.3932 10.4157 22.5329 10.4735C22.6726 10.5314 22.8106 10.5926 22.947 10.6571L25.6083 5.03022C25.0919 4.96895 24.5668 4.93565 24.0348 4.93188Z" fill="black"/>
<path d="M27.2042 5.31381L23.7457 11.084C24.0048 11.2393 24.2561 11.4072 24.4987 11.5872L28.795 5.79428C28.2783 5.60398 27.7474 5.44315 27.2042 5.31381Z" fill="black"/>
<path d="M30.3508 6.47732L25.1988 12.1617C25.3106 12.263 25.42 12.3671 25.5269 12.474C25.6338 12.5809 25.7379 12.6903 25.8392 12.8021L31.8407 7.36261C31.3642 7.03819 30.8668 6.74228 30.3508 6.47732Z" fill="black"/>
<path d="M33.2336 8.44419L26.4137 13.5022C26.5937 13.7448 26.7616 13.9961 26.9169 14.2552L34.4988 9.71075C34.1043 9.26232 33.6816 8.83922 33.2336 8.44419Z" fill="black"/>
<path d="M35.6066 11.1459L27.3438 15.0539C27.4083 15.1903 27.4695 15.3283 27.5274 15.468C27.5852 15.6077 27.6396 15.7486 27.6904 15.8906L36.5294 12.728C36.2556 12.1792 35.9471 11.6509 35.6066 11.1459Z" fill="black"/>
<path d="M37.2426 14.4304L27.9533 16.7573C28.0267 17.0503 28.0856 17.3467 28.13 17.6455L37.7271 16.2219C37.6044 15.6094 37.442 15.0113 37.2426 14.4304Z" fill="black"/>
<path d="M37.9709 18.0677L28.2187 18.5468C28.2261 18.6975 28.2298 18.8484 28.2298 18.9996C28.2298 20.2115 27.9911 21.4116 27.5273 22.5312C27.0636 23.6509 26.3838 24.6683 25.5268 25.5252C24.6699 26.3822 23.6525 27.0619 22.5329 27.5257C21.4132 27.9895 20.2132 28.2282 19.0012 28.2282C17.7893 28.2282 16.5893 27.9895 15.4696 27.5257C14.35 27.0619 13.3326 26.3822 12.4757 25.5252C11.6187 24.6683 10.9389 23.6509 10.4752 22.5312C10.2917 22.0883 10.1434 21.6328 10.0313 21.169C11.0744 27.9086 16.9013 33.0677 23.9331 33.0677C31.7027 33.0677 38.0013 26.7692 38.0013 18.9996C38.0013 18.6865 37.991 18.3758 37.9709 18.0677Z" fill="black"/>
<path d="M10.0312 16.8305C10.0372 16.806 10.0432 16.7816 10.0493 16.7573L10.043 16.7557C10.039 16.7806 10.0351 16.8055 10.0312 16.8305Z" fill="black"/>
<path d="M10.2174 15.8567L10.3122 15.8906C10.363 15.7486 10.4173 15.6077 10.4752 15.468C10.533 15.3283 10.5942 15.1903 10.6587 15.0539L10.4545 14.9573C10.3659 15.2531 10.2867 15.553 10.2174 15.8567Z" fill="black"/>
<path d="M10.7573 14.0584L11.0857 14.2552C11.241 13.9961 11.4089 13.7448 11.5888 13.5022L11.1298 13.1617C10.9957 13.4553 10.8714 13.7544 10.7573 14.0584Z" fill="black"/>
<path d="M11.5761 12.2698L12.1633 12.8021C12.2646 12.6903 12.3688 12.5809 12.4757 12.474C12.5826 12.3671 12.692 12.263 12.8037 12.1617L12.1011 11.3864C11.9157 11.6739 11.7406 11.9685 11.5761 12.2698Z" fill="black"/>
<path d="M12.7096 10.5163L13.5038 11.5872C13.7464 11.4072 13.9977 11.2393 14.2568 11.084L13.407 9.66607C13.1638 9.94014 12.9311 10.2238 12.7096 10.5163Z" fill="black"/>
<path d="M14.198 8.84391L15.0555 10.6571C15.1919 10.5926 15.33 10.5314 15.4696 10.4735C15.6093 10.4157 15.7502 10.3613 15.8923 10.3105L15.0871 8.06017C14.7797 8.309 14.4831 8.57051 14.198 8.84391Z" fill="black"/>
<path d="M16.0775 7.32739L16.7589 10.0476C17.0519 9.97422 17.3484 9.91526 17.6472 9.87093L17.1709 6.66035C16.7957 6.86641 16.4309 7.08909 16.0775 7.32739Z" fill="black"/>
</g>
<defs>
<linearGradient id="paint0_linear_1228_3842" x1="34.605" y1="4.81275" x2="54.401" y2="47.943" gradientUnits="userSpaceOnUse">
<stop offset="0.0363151" stop-color="#3F156A"/>
<stop offset="0.524591" stop-color="#DA3762"/>
<stop offset="1" stop-color="#FCBA7D"/>
</linearGradient>
<linearGradient id="paint1_linear_1228_3842" x1="-5.51" y1="-4.37" x2="35.815" y2="38" gradientUnits="userSpaceOnUse">
<stop offset="0.0363151" stop-color="#3F156A"/>
<stop offset="0.524591" stop-color="#DA3762"/>
<stop offset="1" stop-color="#FCBA7D"/>
</linearGradient>
<linearGradient id="paint2_linear_1228_3842" x1="-5.51" y1="-4.37" x2="35.815" y2="38" gradientUnits="userSpaceOnUse">
<stop offset="0.0363151" stop-color="#3F156A"/>
<stop offset="0.524591" stop-color="#DA3762"/>
<stop offset="1" stop-color="#FCBA7D"/>
</linearGradient>
<linearGradient id="paint3_linear_1228_3842" x1="-5.51" y1="-4.37" x2="35.815" y2="38" gradientUnits="userSpaceOnUse">
<stop offset="0.0363151" stop-color="#3F156A"/>
<stop offset="0.524591" stop-color="#DA3762"/>
<stop offset="1" stop-color="#FCBA7D"/>
</linearGradient>
<linearGradient id="paint4_linear_1228_3842" x1="-5.51" y1="-4.37" x2="35.815" y2="38" gradientUnits="userSpaceOnUse">
<stop offset="0.0363151" stop-color="#3F156A"/>
<stop offset="0.524591" stop-color="#DA3762"/>
<stop offset="1" stop-color="#FCBA7D"/>
</linearGradient>
<linearGradient id="paint5_linear_1228_3842" x1="-5.51" y1="-4.37" x2="35.815" y2="38" gradientUnits="userSpaceOnUse">
<stop offset="0.0363151" stop-color="#3F156A"/>
<stop offset="0.524591" stop-color="#DA3762"/>
<stop offset="1" stop-color="#FCBA7D"/>
</linearGradient>
<linearGradient id="paint6_linear_1228_3842" x1="-5.51" y1="-4.37" x2="35.815" y2="38" gradientUnits="userSpaceOnUse">
<stop offset="0.0363151" stop-color="#3F156A"/>
<stop offset="0.524591" stop-color="#DA3762"/>
<stop offset="1" stop-color="#FCBA7D"/>
</linearGradient>
<linearGradient id="paint7_linear_1228_3842" x1="-5.51" y1="-4.37" x2="35.815" y2="38" gradientUnits="userSpaceOnUse">
<stop offset="0.0363151" stop-color="#3F156A"/>
<stop offset="0.524591" stop-color="#DA3762"/>
<stop offset="1" stop-color="#FCBA7D"/>
</linearGradient>
<linearGradient id="paint8_linear_1228_3842" x1="-5.51" y1="-4.37" x2="35.815" y2="38" gradientUnits="userSpaceOnUse">
<stop offset="0.0363151" stop-color="#3F156A"/>
<stop offset="0.524591" stop-color="#DA3762"/>
<stop offset="1" stop-color="#FCBA7D"/>
</linearGradient>
<linearGradient id="paint9_linear_1228_3842" x1="-5.51" y1="-4.37" x2="35.815" y2="38" gradientUnits="userSpaceOnUse">
<stop offset="0.0363151" stop-color="#3F156A"/>
<stop offset="0.524591" stop-color="#DA3762"/>
<stop offset="1" stop-color="#FCBA7D"/>
</linearGradient>
<linearGradient id="paint10_linear_1228_3842" x1="-5.51" y1="-4.37" x2="35.815" y2="38" gradientUnits="userSpaceOnUse">
<stop offset="0.0363151" stop-color="#3F156A"/>
<stop offset="0.524591" stop-color="#DA3762"/>
<stop offset="1" stop-color="#FCBA7D"/>
</linearGradient>
<linearGradient id="paint11_linear_1228_3842" x1="-5.51" y1="-4.37" x2="35.815" y2="38" gradientUnits="userSpaceOnUse">
<stop offset="0.0363151" stop-color="#3F156A"/>
<stop offset="0.524591" stop-color="#DA3762"/>
<stop offset="1" stop-color="#FCBA7D"/>
</linearGradient>
<linearGradient id="paint12_linear_1228_3842" x1="-5.51" y1="-4.37" x2="35.815" y2="38" gradientUnits="userSpaceOnUse">
<stop offset="0.0363151" stop-color="#3F156A"/>
<stop offset="0.524591" stop-color="#DA3762"/>
<stop offset="1" stop-color="#FCBA7D"/>
</linearGradient>
<linearGradient id="paint13_linear_1228_3842" x1="-5.51" y1="-4.37" x2="35.815" y2="38" gradientUnits="userSpaceOnUse">
<stop offset="0.0363151" stop-color="#3F156A"/>
<stop offset="0.524591" stop-color="#DA3762"/>
<stop offset="1" stop-color="#FCBA7D"/>
</linearGradient>
<linearGradient id="paint14_linear_1228_3842" x1="-5.51" y1="-4.37" x2="35.815" y2="38" gradientUnits="userSpaceOnUse">
<stop offset="0.0363151" stop-color="#3F156A"/>
<stop offset="0.524591" stop-color="#DA3762"/>
<stop offset="1" stop-color="#FCBA7D"/>
</linearGradient>
<linearGradient id="paint15_linear_1228_3842" x1="-5.51" y1="-4.37" x2="35.815" y2="38" gradientUnits="userSpaceOnUse">
<stop offset="0.0363151" stop-color="#3F156A"/>
<stop offset="0.524591" stop-color="#DA3762"/>
<stop offset="1" stop-color="#FCBA7D"/>
</linearGradient>
<linearGradient id="paint16_linear_1228_3842" x1="-5.51" y1="-4.37" x2="35.815" y2="38" gradientUnits="userSpaceOnUse">
<stop offset="0.0363151" stop-color="#3F156A"/>
<stop offset="0.524591" stop-color="#DA3762"/>
<stop offset="1" stop-color="#FCBA7D"/>
</linearGradient>
</defs>
</svg>
