<svg width="55" height="55" viewBox="0 0 55 55" fill="none" xmlns="http://www.w3.org/2000/svg">
<path d="M26.8437 14.1585C27.0618 14.1478 27.2803 14.1424 27.4991 14.1424C27.7179 14.1424 27.9364 14.1478 28.1545 14.1585L28.8484 0.0331224C28.3994 0.011067 27.9495 0 27.4991 0C27.0487 0 26.5988 0.011067 26.1498 0.0331224L26.8437 14.1585Z" fill="#D9D9D9"/>
<path d="M24.2537 14.5427C24.6778 14.4364 25.1068 14.3511 25.5393 14.287L23.4641 0.297636C22.5738 0.429706 21.6905 0.60541 20.8174 0.824111L24.2537 14.5427Z" fill="#D9D9D9"/>
<path d="M29.4589 14.287C29.8914 14.3511 30.3204 14.4364 30.7445 14.5427L34.1808 0.824112C33.3077 0.605411 32.4244 0.429707 31.5341 0.297637L29.4589 14.287Z" fill="#D9D9D9"/>
<path d="M22.3877 15.1591C22.5899 15.0754 22.7938 14.9967 22.9994 14.9232L18.2349 1.60749C17.8117 1.75892 17.3918 1.92086 16.9756 2.09324C16.5595 2.26562 16.1481 2.44802 15.7417 2.6402L21.7884 15.4248C21.9857 15.3314 22.1856 15.2428 22.3877 15.1591Z" fill="#D9D9D9"/>
<path d="M31.9988 14.9232C32.2044 14.9967 32.4083 15.0754 32.6105 15.1591C32.8126 15.2428 33.0125 15.3314 33.2098 15.4248L39.2565 2.64021C38.8501 2.44802 38.4387 2.26562 38.0225 2.09325C37.6064 1.92087 37.1865 1.75892 36.7633 1.60749L31.9988 14.9232Z" fill="#D9D9D9"/>
<path d="M19.5425 16.7709C19.8937 16.5105 20.2574 16.2674 20.6324 16.0427L13.3617 3.91234C12.5897 4.37507 11.8409 4.87543 11.1179 5.41161L19.5425 16.7709Z" fill="#D9D9D9"/>
<path d="M34.3658 16.0427C34.7408 16.2674 35.1045 16.5105 35.4557 16.7709L43.8803 5.41161C43.1573 4.87544 42.4085 4.37507 41.6365 3.91234L34.3658 16.0427Z" fill="#D9D9D9"/>
<path d="M18.0545 18.0545C18.2092 17.8998 18.3675 17.749 18.5293 17.6024L9.03183 7.12361C8.69877 7.42548 8.37281 7.73578 8.0543 8.0543C7.73579 8.37281 7.42548 8.69876 7.12362 9.03182L17.6024 18.5293C17.749 18.3675 17.8998 18.2092 18.0545 18.0545Z" fill="#D9D9D9"/>
<path d="M36.4689 17.6024C36.6307 17.749 36.789 17.8998 36.9437 18.0545C37.0984 18.2092 37.2491 18.3675 37.3958 18.5293L47.8746 9.03183C47.5727 8.69877 47.2624 8.37281 46.9439 8.0543C46.6254 7.73579 46.2994 7.42548 45.9664 7.12362L36.4689 17.6024Z" fill="#D9D9D9"/>
<path d="M16.0427 20.6324C16.2674 20.2574 16.5105 19.8937 16.7709 19.5425L5.41161 11.1179C4.87544 11.8409 4.37507 12.5897 3.91234 13.3617L16.0427 20.6324Z" fill="#D9D9D9"/>
<path d="M38.2273 19.5425C38.4877 19.8937 38.7308 20.2574 38.9555 20.6324L51.0859 13.3617C50.6231 12.5897 50.1228 11.8409 49.5866 11.1179L38.2273 19.5425Z" fill="#D9D9D9"/>
<path d="M15.1591 22.3877C15.2428 22.1856 15.3314 21.9857 15.4248 21.7884L2.64021 15.7417C2.44802 16.1481 2.26562 16.5595 2.09324 16.9756C1.92087 17.3918 1.75892 17.8117 1.60749 18.2349L14.9232 22.9994C14.9967 22.7938 15.0754 22.5898 15.1591 22.3877Z" fill="#D9D9D9"/>
<path d="M39.5734 21.7884C39.6668 21.9857 39.7553 22.1856 39.8391 22.3877C39.9228 22.5899 40.0015 22.7938 40.075 22.9994L53.3907 18.2349C53.2393 17.8117 53.0773 17.3918 52.9049 16.9757C52.7326 16.5595 52.5502 16.1481 52.358 15.7417L39.5734 21.7884Z" fill="#D9D9D9"/>
<path d="M14.287 25.5393C14.3511 25.1068 14.4365 24.6778 14.5427 24.2537L0.824112 20.8174C0.605411 21.6905 0.429707 22.5738 0.297637 23.4641L14.287 25.5393Z" fill="#D9D9D9"/>
<path d="M40.4555 24.2537C40.5617 24.6778 40.6471 25.1068 40.7112 25.5393L54.7006 23.4641C54.5685 22.5738 54.3928 21.6905 54.1741 20.8174L40.4555 24.2537Z" fill="#D9D9D9"/>
<path d="M14.1424 27.4991C14.1424 27.2803 14.1478 27.0618 14.1585 26.8437L0.0331224 26.1498C0.011067 26.5987 0 27.0486 0 27.4991C-5.40725e-07 31.1103 0.711285 34.6862 2.09324 38.0225C3.4752 41.3589 5.50077 44.3904 8.0543 46.9439C10.6078 49.4974 13.6393 51.523 16.9756 52.9049C20.312 54.2869 23.8879 54.9982 27.4991 54.9982C31.1103 54.9982 34.6862 54.2869 38.0225 52.9049C41.3589 51.523 44.3904 49.4974 46.9439 46.9439C49.4974 44.3904 51.523 41.3589 52.9049 38.0225C54.2869 34.6862 54.9982 31.1103 54.9982 27.4991C54.9982 27.0487 54.9871 26.5988 54.9651 26.1498L40.8397 26.8437C40.8504 27.0618 40.8558 27.2803 40.8558 27.4991C40.8558 29.2531 40.5103 30.99 39.8391 32.6105C39.1678 34.231 38.184 35.7034 36.9437 36.9437C35.7034 38.184 34.231 39.1678 32.6105 39.8391C30.99 40.5103 29.2531 40.8558 27.4991 40.8558C25.7451 40.8558 24.0082 40.5103 22.3877 39.8391C20.7672 39.1678 19.2948 38.184 18.0545 36.9437C16.8142 35.7034 15.8303 34.231 15.1591 32.6105C14.4879 30.99 14.1424 29.2531 14.1424 27.4991Z" fill="#D9D9D9"/>
<g opacity="0.3">
<path d="M27.501 14.1419C27.2822 14.1419 27.0637 14.1473 26.8457 14.158L26.5821 8.79377C27.1914 8.53099 27.816 8.2971 28.4543 8.09384L28.1564 14.158C27.9384 14.1473 27.7199 14.1419 27.501 14.1419Z" fill="black"/>
<path d="M30.4576 7.56733L29.4609 14.2865C29.8933 14.3506 30.3224 14.4359 30.7465 14.5422L32.5754 7.24083C31.8578 7.31306 31.1512 7.42255 30.4576 7.56733Z" fill="black"/>
<path d="M34.7862 7.13806L32.0008 14.9227C32.2063 14.9962 32.4103 15.0749 32.6124 15.1586C32.8146 15.2423 33.0144 15.3309 33.2118 15.4243L37.0635 7.28039C36.3161 7.1917 35.5562 7.14351 34.7862 7.13806Z" fill="black"/>
<path d="M39.3734 7.69082L34.3678 16.0422C34.7428 16.2669 35.1065 16.51 35.4576 16.7704L41.6757 8.38622C40.9279 8.1108 40.1595 7.87802 39.3734 7.69082Z" fill="black"/>
<path d="M43.9275 9.3748L36.4709 17.6019C36.6326 17.7485 36.7909 17.8993 36.9457 18.054C37.1004 18.2087 37.2511 18.367 37.3977 18.5288L46.0839 10.6561C45.3942 10.1866 44.6743 9.75828 43.9275 9.3748Z" fill="black"/>
<path d="M48.0998 12.2215L38.2293 19.542C38.4897 19.8932 38.7327 20.2569 38.9575 20.6319L49.931 14.0546C49.3599 13.4056 48.7482 12.7932 48.0998 12.2215Z" fill="black"/>
<path d="M51.5343 16.1317L39.5754 21.7879C39.6687 21.9852 39.7573 22.1851 39.841 22.3872C39.9248 22.5893 40.0034 22.7933 40.077 22.9989L52.8698 18.4215C52.4736 17.6273 52.0271 16.8626 51.5343 16.1317Z" fill="black"/>
<path d="M53.9021 20.8855L40.4575 24.2532C40.5637 24.6773 40.649 25.1063 40.7132 25.5388L54.6033 23.4783C54.4258 22.5919 54.1907 21.7263 53.9021 20.8855Z" fill="black"/>
<path d="M54.9562 26.1498L40.8417 26.8432C40.8524 27.0613 40.8578 27.2798 40.8578 27.4986C40.8578 29.2526 40.5122 30.9895 39.841 32.61C39.1698 34.2305 38.1859 35.7029 36.9456 36.9432C35.7053 38.1835 34.2329 39.1673 32.6124 39.8386C30.9919 40.5098 29.255 40.8553 27.501 40.8553C25.747 40.8553 24.0101 40.5098 22.3896 39.8386C20.7691 39.1673 19.2967 38.1835 18.0564 36.9432C16.8161 35.7029 15.8323 34.2305 15.161 32.61C14.8955 31.9689 14.6809 31.3097 14.5186 30.6383C16.0284 40.3927 24.4617 47.8597 34.6391 47.8597C45.8842 47.8597 55.0001 38.7437 55.0001 27.4986C55.0001 27.0454 54.9853 26.5956 54.9562 26.1498Z" fill="black"/>
<path d="M14.5186 24.3591C14.5271 24.3238 14.5358 24.2884 14.5446 24.2532L14.5356 24.2509C14.5298 24.2869 14.5241 24.323 14.5186 24.3591Z" fill="black"/>
<path d="M14.788 22.9498L14.9251 22.9989C14.9987 22.7933 15.0773 22.5893 15.1611 22.3872C15.2448 22.1851 15.3334 21.9852 15.4267 21.7879L15.1311 21.648C15.0028 22.0762 14.8883 22.5103 14.788 22.9498Z" fill="black"/>
<path d="M15.5694 20.347L16.0446 20.6319C16.2694 20.2569 16.5124 19.8932 16.7728 19.542L16.1084 19.0493C15.9144 19.4742 15.7345 19.907 15.5694 20.347Z" fill="black"/>
<path d="M16.7545 17.7584L17.6044 18.5288C17.751 18.367 17.9017 18.2087 18.0564 18.054C18.2112 17.8993 18.3695 17.7485 18.5312 17.6019L17.5142 16.4798C17.246 16.8959 16.9925 17.3223 16.7545 17.7584Z" fill="black"/>
<path d="M18.395 15.2205L19.5445 16.7704C19.8956 16.51 20.2594 16.2669 20.6343 16.0422L19.4043 13.9899C19.0523 14.3866 18.7156 14.7971 18.395 15.2205Z" fill="black"/>
<path d="M20.5491 12.8L21.7903 15.4243C21.9877 15.3309 22.1875 15.2423 22.3897 15.1586C22.5918 15.0749 22.7958 14.9962 23.0013 14.9227L21.836 11.6657C21.3912 12.0258 20.9618 12.4043 20.5491 12.8Z" fill="black"/>
<path d="M23.2695 10.6051L24.2556 14.5422C24.6797 14.4359 25.1088 14.3506 25.5412 14.2865L24.8519 9.63971C24.3089 9.93794 23.7809 10.2602 23.2695 10.6051Z" fill="black"/>
</g>
</svg>
