<svg width="32" height="32" viewBox="0 0 32 32" fill="none" xmlns="http://www.w3.org/2000/svg">
<rect width="32.0002" height="32.0002" rx="3.77531" fill="#3351F5"/>
<path d="M21.2267 13.0966C21.2267 13.0966 19.5186 18.4854 19.3794 18.9303C19.3288 18.4727 18.0762 8.80078 18.0762 8.80078C15.1661 8.80078 13.6098 10.8851 12.7874 13.0839C12.7874 13.0839 10.7123 18.4854 10.5351 18.943C10.5225 18.5236 10.2188 13.1474 10.2188 13.1474C10.0417 10.453 7.58707 8.81349 5.60059 8.81349L8.00461 23.4675C11.0539 23.4548 12.6988 21.3832 13.5592 19.1844C13.5592 19.1844 15.3938 14.4184 15.4697 14.2023C15.4824 14.4057 16.7856 23.4675 16.7856 23.4675C19.8476 23.4675 21.4924 21.523 22.3781 19.4005L26.6674 8.81349C23.6434 8.81349 22.0491 10.8851 21.2267 13.0966Z" fill="white"/>
</svg>
