<svg width="32" height="32" viewBox="0 0 32 32" fill="none" xmlns="http://www.w3.org/2000/svg">
<g id="Logo" clip-path="url(#clip0_277_514)">
<path id="Vector" d="M16 0C7.16357 0 0 7.16334 0 15.9998V15.9998C0 24.8362 7.16357 31.9996 16 31.9996V31.9996C24.8364 31.9996 32 24.8362 32 15.9998V15.9998C32 7.16334 24.8364 0 16 0V0Z" fill="#FF5E20"/>
<path id="Vector_2" d="M23.0712 16.0737C22.7423 15.8314 22.2726 15.9074 21.9236 16.1195C21.5828 16.3265 21.1791 16.4567 20.8413 16.4328C20.5109 16.4085 20.3488 16.1825 20.492 15.8944C21.7695 13.323 22.4083 11.0089 20.4104 11.2485C19.5444 11.3525 18.4474 12.4116 18.3298 15.7178C18.2932 16.742 17.6783 17.6359 17.1338 18.1848C16.7289 18.5936 16.2593 18.9028 15.68 19.0218C15.117 19.1372 14.7721 18.8486 14.8082 18.2817C14.8558 17.5482 15.0985 16.8623 15.3478 16.1834C15.6937 15.2419 16.2435 13.6559 16.7086 12.3627C16.9338 11.7367 16.4712 11.0684 15.8059 11.0684V11.0684C15.4145 11.0684 15.0636 11.3088 14.9307 11.677C14.5649 12.6897 14.0492 14.2074 13.7866 14.9182C13.4914 15.7182 13.324 16.5328 12.8782 17.268C12.5324 17.8407 12.0738 18.3909 11.5178 18.7848C11.2711 18.961 11.0042 19.0817 10.6914 19.0341C10.3319 18.9799 10.15 18.705 10.1755 18.2508C10.2345 17.1852 10.5094 16.1631 10.8407 15.1583C11.0531 14.5159 11.4361 13.3352 11.7828 12.3398C11.9954 11.7295 11.5433 11.0684 10.8971 11.0684V11.0684C10.52 11.0684 10.1814 11.3005 10.0498 11.6539C9.50602 13.115 8.3086 16.4999 8.25566 18.4464C8.21557 19.9094 9.13981 20.4998 9.46052 20.6425C10.3222 21.0236 11.1989 21.039 12.0407 20.5879C12.4117 20.3889 12.7452 20.1193 13.1096 19.8691C13.1237 19.8594 13.1587 19.8506 13.1711 19.8623V19.8623C13.1936 19.8821 13.2127 19.9055 13.2275 19.9315C13.5936 20.5989 14.2024 20.8566 14.9165 20.9073C15.9597 20.9817 16.8298 20.5451 17.6267 19.9315C18.3474 19.3764 18.9281 18.6923 19.4179 17.9288C19.5131 17.7795 19.5941 17.7795 19.7461 17.8548C19.9828 17.975 21.2402 18.815 23.1466 17.1434C23.4783 16.8525 23.4264 16.3353 23.0712 16.0737V16.0737Z" fill="white"/>
</g>
<defs>
<clipPath id="clip0_277_514">
<rect width="32" height="31.9995" fill="white"/>
</clipPath>
</defs>
</svg>
